<?xml version="1.0" standalone="no"?>
<!DOCTYPE svg PUBLIC "-//W3C//DTD SVG 20010904//EN"
 "http://www.w3.org/TR/2001/REC-SVG-20010904/DTD/svg10.dtd">
<svg version="1.0" xmlns="http://www.w3.org/2000/svg"
 width="551.563958pt" height="159.196779pt" viewBox="0 0 551.563958 159.196779"
 preserveAspectRatio="xMidYMid meet">
<metadata>
Created by potrace 1.16, written by Peter Selinger 2001-2019
</metadata>
<g transform="translate(-2.919998,161.880199) scale(0.100000,-0.100000)"
fill="#000000" stroke="none">
<path d="M1950 1605 c-36 -8 -290 -57 -565 -110 -501 -96 -606 -122 -702 -176
-204 -116 -308 -345 -217 -482 32 -48 102 -93 168 -107 30 -7 126 -10 236 -8
l185 3 -124 60 c-149 72 -175 98 -168 165 7 66 63 113 224 185 545 245 1030
468 1042 480 6 6 -2 5 -79 -10z M2840 1234 c-168 -45 -275 -185 -240 -315 16
-59 63 -101 195 -174 113 -63 145 -95 145 -148 0 -61 -53 -121 -134 -152 -35
-14 -65 -16 -133 -13 -98 6 -168 30 -208 74 -22 24 -25 36 -26 108 l0 81 -74
-145 c-41 -80 -74 -150 -74 -156 -1 -8 17 -6 57 6 56 17 61 17 157 -1 257 -47
467 -8 581 108 53 54 77 104 82 174 8 105 -27 145 -208 243 -58 31 -115 68
-127 82 -73 82 37 194 191 194 85 0 131 -12 170 -43 26 -21 31 -34 41 -108
l11 -84 71 141 72 141 -50 -14 c-45 -13 -60 -13 -137 1 -108 20 -288 20 -362
0z M4847 1194 c-18 -10 -37 -37 -57 -81 -17 -36 -28 -68 -26 -71 10 -9 177 16
199 31 12 8 42 42 65 76 l43 61 -98 0 c-67 -1 -107 -5 -126 -16z M1175 884
c88 -41 171 -86 184 -99 29 -28 32 -72 8 -109 -26 -39 -85 -69 -437 -223 -480
-212 -911 -408 -901 -411 26 -9 1256 223 1351 254 111 37 197 89 273 165 119
118 157 252 103 362 -28 58 -92 108 -161 126 -24 7 -150 11 -310 11 l-270 0
160 -76z M3668 921 c-31 -10 -77 -30 -102 -44 -25 -14 -46 -24 -46 -23 0 2 7
20 15 40 l15 37 -146 -3 c-152 -3 -184 -13 -125 -38 16 -6 32 -18 35 -26 3 -7
-39 -102 -92 -211 l-97 -198 -52 -20 c-99 -38 -80 -45 122 -45 122 0 185 4
185 10 0 6 -12 21 -27 34 l-26 23 79 168 79 168 63 29 c101 48 162 39 162 -26
0 -18 -32 -94 -78 -186 -72 -146 -80 -156 -119 -175 -89 -43 -81 -46 121 -43
130 2 191 7 193 14 2 7 -7 14 -21 18 -52 13 -49 32 26 196 96 211 101 273 23
306 -46 19 -118 17 -187 -5z M4136 928 l-78 -11 -29 -60 c-16 -34 -27 -62 -25
-64 2 -2 46 17 98 41 100 48 179 64 233 48 45 -13 52 -46 25 -110 l-22 -52
-57 0 c-102 0 -238 -19 -296 -41 -74 -28 -148 -98 -166 -157 -39 -134 130
-187 316 -99 88 42 86 42 79 22 -3 -8 6 -25 20 -40 30 -30 77 -33 171 -11 33
8 61 13 63 11 12 -11 -46 -79 -182 -215 -86 -85 -156 -158 -156 -163 0 -4 85
35 190 89 275 139 262 125 437 482 82 167 149 292 157 292 7 0 19 -7 26 -15
19 -23 7 -54 -163 -395 l-152 -305 -70 -35 -70 -35 130 -3 c140 -4 295 5 295
17 0 4 -15 13 -34 19 -19 7 -37 20 -40 29 -4 10 17 65 52 139 l59 122 31 -20
c41 -25 131 -34 204 -19 192 40 362 222 363 387 0 68 -15 98 -69 138 -22 17
-42 21 -104 21 -69 -1 -84 -5 -144 -37 -38 -19 -68 -34 -68 -31 0 2 7 17 15
34 l16 29 -282 -2 c-286 -3 -329 -9 -259 -38 19 -8 30 -20 30 -33 0 -11 -42
-107 -92 -213 -78 -161 -97 -193 -117 -197 -33 -7 -51 1 -51 23 0 9 34 90 75
179 92 200 95 229 22 268 -39 21 -258 27 -381 11z m1199 -88 c59 -66 -71 -321
-196 -384 -29 -14 -64 -26 -76 -26 -36 0 -83 28 -83 49 0 10 35 90 79 177 74
151 81 160 122 181 58 29 129 30 154 3z m-1057 -242 c-34 -66 -51 -87 -83
-105 -73 -41 -144 -41 -166 -2 -26 50 49 145 135 169 43 12 148 28 154 24 2
-1 -16 -40 -40 -86z"/>
</g>
</svg>
